<?xml version="1.0" encoding="utf-8"?>
<svg class="uil-heart" height="124px" preserveAspectRatio="xMidYMid" viewBox="0 0 100 100" width="124px" xmlns="http://www.w3.org/2000/svg"><rect class="bk" fill="none" height="100" width="100" x="0" y="0"/><g transform="translate(50 50)"><g><g transform="translate(-50 -50)"><path d="M90,30.2c0-11-9-20.1-20-20.1s-20,9.1-20,20.2c0,0.2,0-0.3,0,0.7H50c0-1,0-0.6,0-0.8c0-11-9-20.1-20-20.1s-20,9.1-20,20.2 c0,0.2,0-0.3,0,0.7h0c0.3,20,30,39.5,40,55c10-15.5,39.7-35,40-55h0C90,30,90,30.4,90,30.2z" fill="#FFFFFF"/></g><animateTransform attributeName="transform" calcMode="spline" dur="1s" from="1.3" keySplines="0 0.75 0.25 1;0 1 0 1;0 .75 .25 1" keyTimes="0;0.3;0.301;1" repeatCount="indefinite" to="0.9" type="scale" values="1.3;0.9;1.1;0.9"/></g></g></svg>